<?xml version="1.0" encoding="utf-8" standalone="no"?>
<!DOCTYPE svg PUBLIC "-//W3C//DTD SVG 1.1//EN"
  "http://www.w3.org/Graphics/SVG/1.1/DTD/svg11.dtd">
<svg xmlns:xlink="http://www.w3.org/1999/xlink" width="426.088pt" height="198.99756pt" viewBox="0 0 426.088 198.99756" xmlns="http://www.w3.org/2000/svg" version="1.1">
 <metadata>
  <rdf:RDF xmlns:dc="http://purl.org/dc/elements/1.1/" xmlns:cc="http://creativecommons.org/ns#" xmlns:rdf="http://www.w3.org/1999/02/22-rdf-syntax-ns#">
   <cc:Work>
    <dc:type rdf:resource="http://purl.org/dc/dcmitype/StillImage"/>
    <dc:date>2022-07-27T17:15:18.717792</dc:date>
    <dc:format>image/svg+xml</dc:format>
    <dc:creator>
     <cc:Agent>
      <dc:title>Matplotlib v3.5.2, https://matplotlib.org/</dc:title>
     </cc:Agent>
    </dc:creator>
   </cc:Work>
  </rdf:RDF>
 </metadata>
 <defs>
  <style type="text/css">*{stroke-linejoin: round; stroke-linecap: butt}</style>
 </defs>
 <g id="figure_1">
  <g id="patch_1">
   <path d="M 0 198.99756
L 426.088 198.99756
L 426.088 -0
L 0 -0
z
" style="fill: #ffffff"/>
  </g>
  <g id="axes_1">
   <g id="patch_2">
    <path d="M 151.803496 41.688464
C 158.833413 48.718381 168.378196 52.67196 178.32 52.67196
C 188.261804 52.67196 197.806587 48.718381 204.836504 41.688464
" clip-path="url(#p80ae94c8f8)" style="fill: none; stroke: #000000; stroke-linejoin: miter"/>
   </g>
   <g id="line2d_1">
    <path d="M 29.52 163.97196
L 29.817898 154.561026
L 30.413694 147.688086
L 31.307387 140.977793
L 32.498979 134.346467
L 33.690571 128.989562
L 35.18006 123.322266
L 36.967447 117.486523
L 38.754835 112.367651
L 40.84012 107.044615
L 43.223303 101.59951
L 45.606486 96.677359
L 48.287568 91.632437
L 51.266547 86.519652
L 54.245526 81.83205
L 57.522402 77.084789
L 61.097177 72.319083
L 64.671952 67.922175
L 68.544625 63.518951
L 72.417297 59.444176
L 76.587868 55.380923
L 80.758438 51.619026
L 85.226907 47.889593
L 89.695375 44.443236
L 94.461742 41.052342
L 99.228108 37.93263
L 104.292372 34.893107
L 109.356637 32.117895
L 114.420901 29.590618
L 119.783063 27.169668
L 125.145225 24.997562
L 130.507387 23.06279
L 135.86955 21.355694
L 141.52961 19.791839
L 147.18967 18.464769
L 152.84973 17.368054
L 158.50979 16.496553
L 164.16985 15.846293
L 169.82991 15.414367
L 175.48997 15.198875
L 181.15003 15.198875
L 186.81009 15.414367
L 192.47015 15.846293
L 198.13021 16.496553
L 203.79027 17.368054
L 209.45033 18.464769
L 215.11039 19.791839
L 220.77045 21.355694
L 226.132613 23.06279
L 231.494775 24.997562
L 236.856937 27.169668
L 242.219099 29.590618
L 247.283363 32.117895
L 252.347628 34.893107
L 257.411892 37.93263
L 262.178258 41.052342
L 266.944625 44.443236
L 271.413093 47.889593
L 275.881562 51.619026
L 280.052132 55.380923
L 284.222703 59.444176
L 288.095375 63.518951
L 291.968048 67.922175
L 295.542823 72.319083
L 299.117598 77.084789
L 302.394474 81.83205
L 305.373453 86.519652
L 308.352432 91.632437
L 311.033514 96.677359
L 313.416697 101.59951
L 315.79988 107.044615
L 317.885165 112.367651
L 319.672553 117.486523
L 321.45994 123.322266
L 322.949429 128.989562
L 324.141021 134.346467
L 325.034715 139.14793
L 325.928408 145.178403
L 326.524204 150.66956
L 326.822102 154.561026
L 327.12 163.97196
L 327.12 163.97196
" clip-path="url(#p80ae94c8f8)" style="fill: none; stroke: #1f77b4; stroke-width: 1.5; stroke-linecap: square"/>
   </g>
   <g id="line2d_2">
    <path d="M 29.52 163.97196
L 178.32 15.17196
" clip-path="url(#p80ae94c8f8)" style="fill: none; stroke: #ff7f0e; stroke-width: 1.5; stroke-linecap: square"/>
   </g>
   <g id="line2d_3">
    <path d="M 178.32 15.17196
L 327.12 163.97196
" clip-path="url(#p80ae94c8f8)" style="fill: none; stroke: #2ca02c; stroke-width: 1.5; stroke-linecap: square"/>
   </g>
   <g id="line2d_4">
    <path d="M 29.52 163.97196
L 327.12 163.97196
" clip-path="url(#p80ae94c8f8)" style="fill: none; stroke: #d62728; stroke-width: 1.5; stroke-linecap: square"/>
   </g>
   <g id="line2d_5">
    <path d="M 29.52 166.42716
L 31.173333 169.044595
L 32.826667 170.142078
L 34.48 170.433197
L 37.786667 170.514966
L 95.653333 170.51916
L 173.36 170.605123
L 175.013333 170.896242
L 176.666667 171.993725
L 178.32 174.61116
L 179.973333 171.993725
L 181.626667 170.896242
L 183.28 170.605123
L 186.586667 170.523354
L 244.453333 170.51916
L 322.16 170.433197
L 323.813333 170.142078
L 325.466667 169.044595
L 327.12 166.42716
L 327.12 166.42716
" clip-path="url(#p80ae94c8f8)" style="fill: none; stroke: #000000; stroke-linecap: square"/>
   </g>
   <g id="line2d_6">
    <path d="M 329.750747 163.97196
L 332.555328 162.318627
L 333.731281 160.665293
L 334.043215 159.01196
L 334.114914 157.358627
L 334.130831 155.705293
L 334.134337 154.05196
L 334.135108 152.398627
L 334.135277 150.745293
L 334.135314 149.09196
L 334.135322 147.438627
L 334.135324 145.785293
L 334.135325 144.13196
L 334.135325 142.478627
L 334.135325 140.825293
L 334.135325 139.17196
L 334.135325 137.518627
L 334.135325 135.865293
L 334.135325 134.21196
L 334.135325 132.558627
L 334.135325 130.905293
L 334.135325 129.25196
L 334.135325 127.598627
L 334.135325 125.945293
L 334.135325 124.29196
L 334.135325 122.638627
L 334.135325 120.985293
L 334.135325 119.33196
L 334.135325 117.678627
L 334.135325 116.025293
L 334.135325 114.37196
L 334.135325 112.718627
L 334.135325 111.065293
L 334.135325 109.41196
L 334.135325 107.758627
L 334.135327 106.105293
L 334.135335 104.45196
L 334.135373 102.798627
L 334.135542 101.145293
L 334.136313 99.49196
L 334.139819 97.838627
L 334.155736 96.185293
L 334.227435 94.53196
L 334.539368 92.878627
L 335.715321 91.225293
L 338.519903 89.57196
L 335.715321 87.918627
L 334.539368 86.265293
L 334.227435 84.61196
L 334.155736 82.958627
L 334.139819 81.305293
L 334.136313 79.65196
L 334.135542 77.998627
L 334.135373 76.345293
L 334.135335 74.69196
L 334.135327 73.038627
L 334.135325 71.385293
L 334.135325 69.73196
L 334.135325 68.078627
L 334.135325 66.425293
L 334.135325 64.77196
L 334.135325 63.118627
L 334.135325 61.465293
L 334.135325 59.81196
L 334.135325 58.158627
L 334.135325 56.505293
L 334.135325 54.85196
L 334.135325 53.198627
L 334.135325 51.545293
L 334.135325 49.89196
L 334.135325 48.238627
L 334.135325 46.585293
L 334.135325 44.93196
L 334.135325 43.278627
L 334.135325 41.625293
L 334.135325 39.97196
L 334.135325 38.318627
L 334.135325 36.665293
L 334.135325 35.01196
L 334.135324 33.358627
L 334.135322 31.705293
L 334.135314 30.05196
L 334.135277 28.398627
L 334.135108 26.745293
L 334.134337 25.09196
L 334.130831 23.438627
L 334.114914 21.785293
L 334.043215 20.13196
L 333.731281 18.478627
L 332.555328 16.825293
L 329.750747 15.17196
" clip-path="url(#p80ae94c8f8)" style="fill: none; stroke: #000000; stroke-linecap: square"/>
   </g>
   <g id="text_1">
    <!-- $2\alpha$ -->
    <g transform="translate(171.82 39.359906)scale(0.1 -0.1)">
     <defs>
      <path id="DejaVuSans-32" d="M 1228 531
L 3431 531
L 3431 0
L 469 0
L 469 531
Q 828 903 1448 1529
Q 2069 2156 2228 2338
Q 2531 2678 2651 2914
Q 2772 3150 2772 3378
Q 2772 3750 2511 3984
Q 2250 4219 1831 4219
Q 1534 4219 1204 4116
Q 875 4013 500 3803
L 500 4441
Q 881 4594 1212 4672
Q 1544 4750 1819 4750
Q 2544 4750 2975 4387
Q 3406 4025 3406 3419
Q 3406 3131 3298 2873
Q 3191 2616 2906 2266
Q 2828 2175 2409 1742
Q 1991 1309 1228 531
z
" transform="scale(0.015625)"/>
      <path id="DejaVuSans-Oblique-3b1" d="M 2619 1628
L 2622 2350
Q 2625 3088 2069 3091
Q 1653 3094 1394 2747
Q 1069 2319 959 1747
Q 825 1059 994 731
Q 1169 397 1547 397
Q 1966 397 2319 1063
L 2619 1628
z
M 2166 3578
Q 3141 3594 3128 2584
Q 3128 2584 3616 3500
L 4128 3500
L 3119 1603
L 3109 919
Q 3109 766 3194 638
Q 3291 488 3391 488
L 3669 488
L 3575 0
L 3228 0
Q 2934 0 2722 263
Q 2622 394 2619 669
Q 2416 334 2066 50
Q 1900 -81 1453 -78
Q 722 -72 456 397
Q 184 884 353 1747
Q 534 2675 1009 3097
Q 1544 3569 2166 3578
z
" transform="scale(0.015625)"/>
     </defs>
     <use xlink:href="#DejaVuSans-32" transform="translate(0 0.78125)"/>
     <use xlink:href="#DejaVuSans-Oblique-3b1" transform="translate(63.623047 0.78125)"/>
    </g>
   </g>
   <g id="text_2">
    <!-- $\mathrm{Chord\ Width}\ (w)$ -->
    <g transform="translate(140.37 189.29756)scale(0.1 -0.1)">
     <defs>
      <path id="Cmr10-43" d="M 1459 684
Q 1678 406 2006 245
Q 2334 84 2688 84
Q 2984 84 3237 201
Q 3491 319 3680 528
Q 3869 738 3970 1003
Q 4072 1269 4072 1563
Q 4072 1613 4128 1613
L 4206 1613
Q 4256 1613 4256 1550
Q 4256 1216 4128 905
Q 4000 594 3765 358
Q 3531 122 3226 -9
Q 2922 -141 2591 -141
Q 2131 -141 1720 45
Q 1309 231 1004 554
Q 700 878 529 1303
Q 359 1728 359 2188
Q 359 2647 529 3072
Q 700 3497 1004 3822
Q 1309 4147 1720 4330
Q 2131 4513 2591 4513
Q 2919 4513 3219 4370
Q 3519 4228 3744 3969
L 4116 4494
Q 4153 4513 4159 4513
L 4206 4513
Q 4225 4513 4240 4497
Q 4256 4481 4256 4459
L 4256 2731
Q 4256 2675 4206 2675
L 4091 2675
Q 4031 2675 4031 2731
Q 4031 2916 3957 3144
Q 3884 3372 3770 3576
Q 3656 3781 3506 3938
Q 3147 4288 2681 4288
Q 2328 4288 2004 4128
Q 1681 3969 1459 3688
Q 1225 3388 1134 3005
Q 1044 2622 1044 2188
Q 1044 1753 1134 1368
Q 1225 984 1459 684
z
" transform="scale(0.015625)"/>
      <path id="Cmr10-68" d="M 191 0
L 191 225
Q 409 225 550 259
Q 691 294 691 428
L 691 3788
Q 691 3959 639 4036
Q 588 4113 491 4130
Q 394 4147 191 4147
L 191 4372
L 1141 4441
L 1141 2241
Q 1275 2506 1515 2667
Q 1756 2828 2047 2828
Q 2491 2828 2714 2615
Q 2938 2403 2938 1966
L 2938 428
Q 2938 294 3078 259
Q 3219 225 3438 225
L 3438 0
L 1972 0
L 1972 225
Q 2191 225 2331 259
Q 2472 294 2472 428
L 2472 1947
Q 2472 2259 2381 2461
Q 2291 2663 2009 2663
Q 1638 2663 1398 2366
Q 1159 2069 1159 1691
L 1159 428
Q 1159 294 1300 259
Q 1441 225 1656 225
L 1656 0
L 191 0
z
" transform="scale(0.015625)"/>
      <path id="Cmr10-6f" d="M 1600 -72
Q 1216 -72 887 123
Q 559 319 368 647
Q 178 975 178 1363
Q 178 1656 283 1928
Q 388 2200 583 2414
Q 778 2628 1037 2748
Q 1297 2869 1600 2869
Q 1994 2869 2317 2661
Q 2641 2453 2828 2104
Q 3016 1756 3016 1363
Q 3016 978 2825 648
Q 2634 319 2307 123
Q 1981 -72 1600 -72
z
M 1600 116
Q 2113 116 2284 487
Q 2456 859 2456 1434
Q 2456 1756 2422 1967
Q 2388 2178 2272 2350
Q 2200 2456 2089 2536
Q 1978 2616 1854 2658
Q 1731 2700 1600 2700
Q 1400 2700 1220 2609
Q 1041 2519 922 2350
Q 803 2169 770 1951
Q 738 1734 738 1434
Q 738 1075 800 789
Q 863 503 1052 309
Q 1241 116 1600 116
z
" transform="scale(0.015625)"/>
      <path id="Cmr10-72" d="M 166 0
L 166 225
Q 384 225 525 259
Q 666 294 666 428
L 666 2175
Q 666 2347 614 2423
Q 563 2500 466 2517
Q 369 2534 166 2534
L 166 2759
L 1081 2828
L 1081 2203
Q 1184 2481 1375 2654
Q 1566 2828 1838 2828
Q 2028 2828 2178 2715
Q 2328 2603 2328 2419
Q 2328 2303 2245 2217
Q 2163 2131 2041 2131
Q 1922 2131 1837 2215
Q 1753 2300 1753 2419
Q 1753 2591 1875 2663
L 1838 2663
Q 1578 2663 1414 2475
Q 1250 2288 1181 2009
Q 1113 1731 1113 1478
L 1113 428
Q 1113 225 1734 225
L 1734 0
L 166 0
z
" transform="scale(0.015625)"/>
      <path id="Cmr10-64" d="M 1563 -72
Q 1184 -72 871 133
Q 559 338 386 672
Q 213 1006 213 1381
Q 213 1769 402 2101
Q 591 2434 916 2631
Q 1241 2828 1631 2828
Q 1866 2828 2075 2729
Q 2284 2631 2438 2456
L 2438 3788
Q 2438 3959 2386 4036
Q 2334 4113 2239 4130
Q 2144 4147 1941 4147
L 1941 4372
L 2888 4441
L 2888 581
Q 2888 413 2939 336
Q 2991 259 3086 242
Q 3181 225 3384 225
L 3384 0
L 2419 -72
L 2419 331
Q 2253 141 2025 34
Q 1797 -72 1563 -72
z
M 909 556
Q 1019 347 1201 222
Q 1384 97 1600 97
Q 1866 97 2087 250
Q 2309 403 2419 647
L 2419 2181
Q 2344 2322 2230 2433
Q 2116 2544 1973 2603
Q 1831 2663 1672 2663
Q 1338 2663 1134 2473
Q 931 2284 850 1990
Q 769 1697 769 1375
Q 769 1119 795 928
Q 822 738 909 556
z
" transform="scale(0.015625)"/>
      <path id="Cmr10-57" d="M 1991 -72
L 684 3944
Q 634 4078 490 4112
Q 347 4147 116 4147
L 116 4372
L 1831 4372
L 1831 4147
Q 1294 4147 1294 3975
L 1294 3944
L 2316 794
L 3188 3488
L 3041 3944
Q 2991 4078 2847 4112
Q 2703 4147 2472 4147
L 2472 4372
L 4184 4372
L 4184 4147
Q 3641 4147 3641 3975
Q 3641 3966 3647 3947
Q 3653 3928 3653 3922
L 4672 794
L 5631 3769
Q 5638 3788 5638 3828
Q 5638 3997 5459 4072
Q 5281 4147 5088 4147
L 5088 4372
L 6456 4372
L 6456 4147
Q 5950 4147 5831 3769
L 4581 -72
Q 4559 -141 4488 -141
L 4441 -141
Q 4369 -141 4347 -72
L 3291 3188
L 2228 -72
Q 2206 -141 2131 -141
L 2088 -141
Q 2013 -141 1991 -72
z
" transform="scale(0.015625)"/>
      <path id="Cmr10-69" d="M 197 0
L 197 225
Q 416 225 556 259
Q 697 294 697 428
L 697 2175
Q 697 2422 601 2478
Q 506 2534 225 2534
L 225 2759
L 1147 2828
L 1147 428
Q 1147 294 1269 259
Q 1391 225 1594 225
L 1594 0
L 197 0
z
M 469 3928
Q 469 4069 575 4175
Q 681 4281 819 4281
Q 909 4281 993 4234
Q 1078 4188 1125 4103
Q 1172 4019 1172 3928
Q 1172 3791 1065 3684
Q 959 3578 819 3578
Q 681 3578 575 3684
Q 469 3791 469 3928
z
" transform="scale(0.015625)"/>
      <path id="Cmr10-74" d="M 653 769
L 653 2534
L 122 2534
L 122 2700
Q 541 2700 737 3090
Q 934 3481 934 3938
L 1119 3938
L 1119 2759
L 2022 2759
L 2022 2534
L 1119 2534
L 1119 781
Q 1119 516 1208 316
Q 1297 116 1528 116
Q 1747 116 1844 327
Q 1941 538 1941 781
L 1941 1159
L 2125 1159
L 2125 769
Q 2125 569 2051 373
Q 1978 178 1834 53
Q 1691 -72 1484 -72
Q 1100 -72 876 158
Q 653 388 653 769
z
" transform="scale(0.015625)"/>
      <path id="Cmr10-28" d="M 1984 -1588
Q 1628 -1306 1370 -942
Q 1113 -578 948 -165
Q 784 247 703 697
Q 622 1147 622 1600
Q 622 2059 703 2509
Q 784 2959 951 3375
Q 1119 3791 1378 4153
Q 1638 4516 1984 4788
Q 1984 4800 2016 4800
L 2075 4800
Q 2094 4800 2109 4783
Q 2125 4766 2125 4744
Q 2125 4716 2113 4703
Q 1800 4397 1592 4047
Q 1384 3697 1257 3301
Q 1131 2906 1075 2482
Q 1019 2059 1019 1600
Q 1019 -434 2106 -1491
Q 2125 -1509 2125 -1544
Q 2125 -1559 2108 -1579
Q 2091 -1600 2075 -1600
L 2016 -1600
Q 1984 -1600 1984 -1588
z
" transform="scale(0.015625)"/>
      <path id="Cmmi10-77" d="M 691 744
Q 691 878 727 1053
Q 763 1228 806 1364
Q 850 1500 954 1781
Q 1059 2063 1069 2088
Q 1153 2322 1153 2472
Q 1153 2663 1013 2663
Q 759 2663 595 2402
Q 431 2141 353 1819
Q 341 1778 300 1778
L 225 1778
Q 172 1778 172 1838
L 172 1856
Q 275 2238 487 2533
Q 700 2828 1025 2828
Q 1253 2828 1411 2678
Q 1569 2528 1569 2297
Q 1569 2178 1516 2047
Q 1441 1853 1339 1581
Q 1238 1309 1181 1087
Q 1125 866 1125 659
Q 1125 409 1256 253
Q 1388 97 1638 97
Q 1978 97 2203 616
Q 2194 653 2194 722
Q 2194 894 2247 1113
L 2606 2553
Q 2628 2638 2706 2698
Q 2784 2759 2875 2759
Q 2950 2759 3008 2709
Q 3066 2659 3066 2578
Q 3066 2541 3059 2528
L 2700 1100
Q 2638 844 2638 641
Q 2638 400 2748 248
Q 2859 97 3097 97
Q 3509 97 3775 641
Q 3875 834 3998 1212
Q 4122 1591 4122 1791
Q 4122 1975 4062 2083
Q 4003 2191 3898 2316
Q 3794 2441 3794 2503
Q 3794 2625 3898 2729
Q 4003 2834 4128 2834
Q 4281 2834 4348 2693
Q 4416 2553 4416 2375
Q 4416 2159 4344 1826
Q 4272 1494 4162 1158
Q 4053 822 3956 622
Q 3606 -72 3084 -72
Q 2816 -72 2594 31
Q 2372 134 2266 359
Q 2163 175 1995 51
Q 1828 -72 1625 -72
Q 1203 -72 947 129
Q 691 331 691 744
z
" transform="scale(0.015625)"/>
      <path id="Cmr10-29" d="M 416 -1600
Q 359 -1600 359 -1544
Q 359 -1516 372 -1503
Q 1466 -434 1466 1600
Q 1466 3634 384 4691
Q 359 4706 359 4744
Q 359 4766 376 4783
Q 394 4800 416 4800
L 475 4800
Q 494 4800 506 4788
Q 966 4425 1272 3906
Q 1578 3388 1720 2800
Q 1863 2213 1863 1600
Q 1863 1147 1786 708
Q 1709 269 1542 -157
Q 1375 -584 1119 -945
Q 863 -1306 506 -1588
Q 494 -1600 475 -1600
L 416 -1600
z
" transform="scale(0.015625)"/>
     </defs>
     <use xlink:href="#Cmr10-43"/>
     <use xlink:href="#Cmr10-68" transform="translate(72.216797 0)"/>
     <use xlink:href="#Cmr10-6f" transform="translate(127.734375 0)"/>
     <use xlink:href="#Cmr10-72" transform="translate(177.734375 0)"/>
     <use xlink:href="#Cmr10-64" transform="translate(216.845703 0)"/>
     <use xlink:href="#Cmr10-57" transform="translate(300.129931 0)"/>
     <use xlink:href="#Cmr10-69" transform="translate(402.815478 0)"/>
     <use xlink:href="#Cmr10-64" transform="translate(430.501024 0)"/>
     <use xlink:href="#Cmr10-74" transform="translate(486.018603 0)"/>
     <use xlink:href="#Cmr10-68" transform="translate(524.836962 0)"/>
     <use xlink:href="#Cmr10-28" transform="translate(609.61857 0)"/>
     <use xlink:href="#Cmmi10-77" transform="translate(648.43693 0)"/>
     <use xlink:href="#Cmr10-29" transform="translate(719.921305 0)"/>
    </g>
   </g>
   <g id="text_3">
    <!-- $\mathrm{Chord\ Heigh}t\ (h)$ -->
    <g transform="translate(343.488 92.07196)scale(0.1 -0.1)">
     <defs>
      <path id="Cmr10-48" d="M 197 0
L 197 225
Q 856 225 856 428
L 856 3944
Q 856 4147 197 4147
L 197 4372
L 2113 4372
L 2113 4147
Q 1453 4147 1453 3944
L 1453 2388
L 3341 2388
L 3341 3944
Q 3341 4147 2681 4147
L 2681 4372
L 4594 4372
L 4594 4147
Q 3938 4147 3938 3944
L 3938 428
Q 3938 225 4594 225
L 4594 0
L 2681 0
L 2681 225
Q 3341 225 3341 428
L 3341 2163
L 1453 2163
L 1453 428
Q 1453 225 2113 225
L 2113 0
L 197 0
z
" transform="scale(0.015625)"/>
      <path id="Cmr10-65" d="M 1594 -72
Q 1203 -72 876 133
Q 550 338 364 680
Q 178 1022 178 1403
Q 178 1778 348 2115
Q 519 2453 823 2661
Q 1128 2869 1503 2869
Q 1797 2869 2014 2770
Q 2231 2672 2372 2497
Q 2513 2322 2584 2084
Q 2656 1847 2656 1563
Q 2656 1478 2591 1478
L 738 1478
L 738 1409
Q 738 878 952 497
Q 1166 116 1650 116
Q 1847 116 2014 203
Q 2181 291 2304 447
Q 2428 603 2472 781
Q 2478 803 2495 820
Q 2513 838 2534 838
L 2591 838
Q 2656 838 2656 756
Q 2566 394 2266 161
Q 1966 -72 1594 -72
z
M 744 1638
L 2203 1638
Q 2203 1878 2136 2125
Q 2069 2372 1912 2536
Q 1756 2700 1503 2700
Q 1141 2700 942 2361
Q 744 2022 744 1638
z
" transform="scale(0.015625)"/>
      <path id="Cmr10-67" d="M 178 -500
Q 178 -272 343 -101
Q 509 69 738 141
Q 609 238 542 384
Q 475 531 475 697
Q 475 997 666 1228
Q 372 1516 372 1888
Q 372 2088 458 2263
Q 544 2438 697 2566
Q 850 2694 1037 2761
Q 1225 2828 1422 2828
Q 1803 2828 2106 2606
Q 2238 2747 2417 2823
Q 2597 2900 2791 2900
Q 2928 2900 3015 2801
Q 3103 2703 3103 2566
Q 3103 2488 3043 2428
Q 2984 2369 2906 2369
Q 2825 2369 2765 2428
Q 2706 2488 2706 2566
Q 2706 2684 2784 2731
Q 2453 2731 2216 2503
Q 2331 2388 2401 2220
Q 2472 2053 2472 1888
Q 2472 1616 2322 1398
Q 2172 1181 1926 1061
Q 1681 941 1422 941
Q 1072 941 781 1131
Q 691 1006 691 850
Q 691 681 802 554
Q 913 428 1081 428
L 1606 428
Q 1988 428 2294 359
Q 2600 291 2808 84
Q 3016 -122 3016 -500
Q 3016 -781 2778 -967
Q 2541 -1153 2211 -1236
Q 1881 -1319 1600 -1319
Q 1316 -1319 984 -1236
Q 653 -1153 415 -967
Q 178 -781 178 -500
z
M 538 -500
Q 538 -716 713 -861
Q 888 -1006 1134 -1076
Q 1381 -1147 1600 -1147
Q 1816 -1147 2062 -1076
Q 2309 -1006 2482 -861
Q 2656 -716 2656 -500
Q 2656 -166 2350 -67
Q 2044 31 1606 31
L 1081 31
Q 934 31 811 -39
Q 688 -109 613 -236
Q 538 -363 538 -500
z
M 1422 1113
Q 1966 1113 1966 1888
Q 1966 2222 1850 2439
Q 1734 2656 1422 2656
Q 1109 2656 993 2439
Q 878 2222 878 1888
Q 878 1675 922 1503
Q 966 1331 1084 1222
Q 1203 1113 1422 1113
z
" transform="scale(0.015625)"/>
      <path id="Cmmi10-74" d="M 397 519
Q 397 613 416 697
L 878 2534
L 206 2534
Q 141 2534 141 2619
Q 166 2759 225 2759
L 934 2759
L 1191 3803
Q 1216 3888 1291 3947
Q 1366 4006 1459 4006
Q 1541 4006 1595 3957
Q 1650 3909 1650 3828
Q 1650 3809 1648 3798
Q 1647 3788 1644 3775
L 1388 2759
L 2047 2759
Q 2113 2759 2113 2675
Q 2109 2659 2100 2621
Q 2091 2584 2075 2559
Q 2059 2534 2028 2534
L 1331 2534
L 872 684
Q 825 503 825 372
Q 825 97 1013 97
Q 1294 97 1511 361
Q 1728 625 1844 941
Q 1869 978 1894 978
L 1972 978
Q 1997 978 2012 961
Q 2028 944 2028 922
Q 2028 909 2022 903
Q 1881 516 1612 222
Q 1344 -72 997 -72
Q 744 -72 570 93
Q 397 259 397 519
z
" transform="scale(0.015625)"/>
      <path id="Cmmi10-68" d="M 341 116
Q 341 153 347 172
L 1275 3872
Q 1300 3981 1306 4044
Q 1306 4147 891 4147
Q 825 4147 825 4231
Q 828 4247 839 4287
Q 850 4328 867 4350
Q 884 4372 916 4372
L 1778 4441
L 1797 4441
Q 1797 4434 1819 4423
Q 1841 4413 1844 4409
Q 1856 4378 1856 4359
L 1356 2363
Q 1750 2828 2291 2828
Q 2516 2828 2680 2750
Q 2844 2672 2936 2514
Q 3028 2356 3028 2138
Q 3028 1875 2911 1503
Q 2794 1131 2619 672
Q 2528 463 2528 288
Q 2528 97 2675 97
Q 2925 97 3092 364
Q 3259 631 3328 941
Q 3341 978 3378 978
L 3456 978
Q 3481 978 3497 961
Q 3513 944 3513 922
Q 3513 916 3506 903
Q 3450 672 3339 448
Q 3228 225 3059 76
Q 2891 -72 2663 -72
Q 2438 -72 2278 83
Q 2119 238 2119 459
Q 2119 578 2169 709
Q 2350 1191 2470 1569
Q 2591 1947 2591 2234
Q 2591 2419 2519 2541
Q 2447 2663 2278 2663
Q 1934 2663 1678 2452
Q 1422 2241 1234 1894
L 800 147
Q 775 50 703 -11
Q 631 -72 538 -72
Q 456 -72 398 -17
Q 341 38 341 116
z
" transform="scale(0.015625)"/>
     </defs>
     <use xlink:href="#Cmr10-43"/>
     <use xlink:href="#Cmr10-68" transform="translate(72.216797 0)"/>
     <use xlink:href="#Cmr10-6f" transform="translate(127.734375 0)"/>
     <use xlink:href="#Cmr10-72" transform="translate(177.734375 0)"/>
     <use xlink:href="#Cmr10-64" transform="translate(216.845703 0)"/>
     <use xlink:href="#Cmr10-48" transform="translate(300.129931 0)"/>
     <use xlink:href="#Cmr10-65" transform="translate(375.129931 0)"/>
     <use xlink:href="#Cmr10-69" transform="translate(419.514696 0)"/>
     <use xlink:href="#Cmr10-67" transform="translate(447.200243 0)"/>
     <use xlink:href="#Cmr10-68" transform="translate(497.200243 0)"/>
     <use xlink:href="#Cmmi10-74" transform="translate(552.717821 0)"/>
     <use xlink:href="#Cmr10-28" transform="translate(618.065836 0)"/>
     <use xlink:href="#Cmmi10-68" transform="translate(656.884195 0)"/>
     <use xlink:href="#Cmr10-29" transform="translate(714.501383 0)"/>
    </g>
   </g>
  </g>
 </g>
 <defs>
  <clipPath id="p80ae94c8f8">
   <rect x="7.2" y="7.2" width="357.12" height="175.38312"/>
  </clipPath>
 </defs>
</svg>
